# This file is brought to you by Roblox Corporation
# Generated by Roblox Studio

mtllib GunSlide Centerstage.mtl

g Gunslide1

v 8.23735 1.18232 6.94996 
v 8.23735 1.28232 6.94996 
v 8.23735 1.18232 6.69996 
v 8.23735 1.28232 6.69996 
v 8.28734 1.18232 6.94996 
v 8.28734 1.2823 6.94996 
v 8.23735 1.18232 6.94996 
v 8.28734 1.28232 6.94996 
v 8.23735 1.28232 6.94996 
v 8.28734 1.2823 6.94996 
v 8.28734 1.2823 6.94997 
v 8.28737 1.28229 6.94997 
v 8.28737 1.28229 6.94997 
v 8.33736 1.18231 6.94997 
v 8.33736 1.18231 6.69997 
v 8.28737 1.28229 6.69997 
v 8.28737 1.28229 6.69997 
v 8.28734 1.28232 6.69997 
v 8.28737 1.28229 6.94997 
v 8.28734 1.28232 6.94996 
v 8.23735 1.28232 6.69996 
v 8.23735 1.28232 6.94996 
v 8.28734 1.28232 6.69996 
v 8.28734 1.28232 6.94996 
v 8.28734 1.28232 6.69997 
v 8.28734 1.18232 6.69996 
v 8.28734 1.28232 6.69996 
v 8.28734 1.18232 6.69997 
v 8.23735 1.28232 6.69996 
v 8.28734 1.28232 6.69996 
v 8.23735 1.18232 6.69996 
v 8.28734 1.18232 6.69996 
v 8.28734 1.18232 6.69997 
v 8.28734 1.18232 6.69996 
v 8.28734 1.18232 6.69997 
v 8.23735 1.18232 6.69996 
v 8.28737 1.28229 6.69997 
v 8.33736 1.18231 6.69997 
v 8.28734 1.18232 6.69997 
v 8.28737 1.18231 6.69997 
v 8.28734 1.18232 6.69997 
v 8.28734 1.18232 6.94996 
v 8.23735 1.18232 6.94996 
v 8.28734 1.18232 6.94997 
v 8.28734 1.2823 6.94997 
v 8.28734 1.18232 6.94996 
v 8.28734 1.2823 6.94996 
v 8.23732 1.28227 6.94997 
v 8.18731 1.18231 6.94997 
v 8.23732 1.18231 6.94997 
v 8.18731 1.18231 6.69997 
v 8.23732 1.28227 6.69997 
v 8.23732 1.18231 6.69997 
v 8.23732 1.28227 6.69997 
v 8.23732 1.28227 6.94997 
v 8.23732 1.18231 6.69997 
v 8.23732 1.18231 6.94997 
v 8.28737 1.18231 6.94997 
v 8.28737 1.18231 6.69997 
v 8.28734 1.18232 6.69997 
v 8.28737 1.18231 6.69997 
v 8.23732 1.18231 6.69997 
v 8.28737 1.18231 6.94997 
v 8.23732 1.18231 6.94997 
v 8.28737 1.18231 6.94997 
v 8.28734 1.2823 6.94997 
v 8.28734 1.18232 6.94997 
v 8.33736 1.18231 6.94997 
v 8.33736 1.18231 6.69997 
v 8.83739 1.18232 6.64997 
v 8.83739 1.18232 6.64997 
v 8.83739 1.18232 6.99997 
v 8.83739 0.932314 6.64997 
v 8.83739 0.932314 6.99997 
v 8.83739 1.18232 6.99997 
v 8.33736 1.18231 6.94997 
v 8.13738 1.18232 6.99997 
v 8.83739 0.932314 6.64997 
v 8.83739 0.932314 6.99997 
v 8.13738 0.932314 6.64997 
v 8.13738 0.932314 6.99997 
v 8.13738 0.932314 6.64997 
v 8.13738 1.18232 6.64997 
v 8.83739 0.932314 6.64997 
v 8.18273 1.18231 6.64997 
v 8.83739 1.18232 6.64997 
v 8.18273 1.18231 6.64997 
v 8.83739 0.932314 6.99997 
v 8.83739 1.18232 6.99997 
v 8.13738 0.932314 6.99997 
v 8.13738 1.18232 6.99997 
v 8.13738 0.932314 6.64997 
v 8.13738 0.932314 6.99997 
v 8.13738 1.18232 6.64997 
v 8.13738 1.18232 6.99997 
v 8.13738 1.18232 6.64997 
v 8.18731 1.18231 6.69997 
v 8.23732 1.28227 6.69997 
v 8.18731 1.18231 6.69997 
v 8.23732 1.28227 6.94997 
v 8.18731 1.18231 6.94997 
v 8.18731 1.18231 6.94997 
v 9.68737 1.18232 6.69996 
v 9.68737 1.18232 6.94996 
v 9.68737 1.28232 6.69996 
v 9.68737 1.28232 6.94996 
v 9.68737 1.18231 6.69997 
v 9.63738 1.18231 6.69997 
v 9.6874 1.28227 6.69997 
v 9.6874 1.28227 6.69997 
v 9.63738 1.18231 6.69997 
v 9.6874 1.28227 6.94997 
v 9.63738 1.18231 6.94997 
v 9.63738 1.18231 6.94997 
v 9.68737 1.18231 6.94997 
v 9.6874 1.28227 6.94997 
v 9.63738 1.18231 6.94997 
v 9.4374 1.18231 6.99997 
v 9.69204 1.18231 6.99997 
v 9.68737 1.18231 6.94997 
v 9.68737 1.18231 6.69997 
v 9.6874 1.28227 6.69997 
v 9.68737 1.18231 6.94997 
v 9.6874 1.28227 6.94997 
v 9.68737 1.18231 6.69997 
v 9.4374 1.18231 6.64997 
v 9.63738 1.18231 6.69997 
v 9.43737 1.03231 6.99997 
v 9.4374 1.18231 6.99997 
v 9.43737 1.03231 6.64997 
v 9.4374 0.932311 6.99997 
v 9.4374 1.18231 6.64997 
v 9.43737 0.932311 6.99997 
v 9.43737 1.03231 6.99997 
v 8.83739 1.03232 6.99997 
v 9.43737 0.932311 6.99997 
v 8.83739 0.932314 6.99997 
v 8.83739 0.932314 6.64997 
v 8.83739 0.932314 6.99997 
v 8.83739 1.03232 6.64997 
v 8.83739 1.03232 6.99997 
v 9.43737 1.03231 6.64997 
v 9.4374 1.03231 6.64997 
v 9.4374 1.03232 6.64997 
v 8.83739 1.03232 6.99997 
v 9.43737 1.03231 6.99997 
v 8.83739 1.03232 6.64997 
v 9.4374 1.03232 6.64997 
v 9.4374 0.932314 6.64997 
v 8.83739 1.03232 6.64997 
v 8.83739 0.932314 6.64997 
v 9.43737 0.932311 6.64997 
v 9.43737 0.932311 6.99997 
v 8.83739 0.932314 6.64997 
v 8.83739 0.932314 6.99997 
v 9.4374 0.932314 6.64997 
v 9.4374 0.932314 6.64997 
v 9.4374 0.932311 6.64997 
v 9.43737 0.932311 6.64997 
v 9.43737 0.932311 6.64997 
v 9.4374 0.932314 6.64997 
v 9.4374 0.932311 6.64997 
v 9.4374 0.932311 6.99997 
v 9.4374 0.932311 6.64997 
v 9.83736 0.932311 6.99997 
v 9.83736 0.932311 6.64997 
v 9.69204 1.18231 6.64997 
v 9.43737 1.03231 6.64997 
v 9.4374 1.18231 6.64997 
v 9.4374 1.03231 6.64997 
v 9.69204 1.18231 6.64997 
v 9.4374 1.03231 6.64997 
v 9.4374 0.932314 6.64997 
v 9.4374 1.03232 6.64997 
v 9.4374 0.932314 6.64997 
v 9.83736 1.18231 6.64997 
v 9.83736 0.932311 6.64997 
v 9.83736 1.18231 6.64997 
v 9.83736 1.18231 6.99997 
v 9.83736 0.932311 6.64997 
v 9.83736 0.932311 6.99997 
v 9.83736 0.932311 6.99997 
v 9.83736 1.18231 6.99997 
v 9.4374 0.932311 6.99997 
v 9.69204 1.18231 6.99997 
v 9.4374 1.18231 6.99997 
v 9.73735 1.18231 6.69997 
v 9.78737 1.18231 6.69997 
v 9.83736 1.18231 6.64997 
v 9.73735 1.18232 6.69997 
v 9.73735 1.18232 6.69997 
v 9.73735 1.18232 6.69996 
v 9.73735 1.28227 6.69997 
v 9.73735 1.18232 6.69997 
v 9.73735 1.28232 6.69996 
v 9.73735 1.18232 6.69996 
v 9.73735 1.28232 6.94996 
v 9.68737 1.28232 6.94996 
v 9.73735 1.2823 6.94996 
v 9.68737 1.18232 6.94996 
v 9.73735 1.18232 6.94996 
v 9.73735 1.18232 6.94996 
v 9.68737 1.18232 6.94996 
v 9.78737 1.18231 6.94997 
v 9.83736 1.18231 6.99997 
v 9.73735 1.28227 6.94997 
v 9.73735 1.28227 6.94997 
v 9.73735 1.28232 6.94996 
v 9.73735 1.18231 6.94997 
v 9.73735 1.2823 6.94997 
v 9.73735 1.18231 6.94997 
v 9.78737 1.18231 6.94997 
v 9.73735 1.28227 6.94997 
v 9.78737 1.18231 6.94997 
v 9.73735 1.28227 6.69997 
v 9.78737 1.18231 6.69997 
v 9.73735 1.18232 6.69997 
v 9.78737 1.18231 6.69997 
v 9.73735 1.18231 6.69997 
v 9.73735 1.28227 6.69997 
v 9.73735 1.18232 6.69997 
v 9.73735 1.18231 6.94997 
v 9.73735 1.18232 6.94996 
v 9.73735 1.18231 6.69997 
v 9.73735 1.18232 6.69997 
v 9.73735 1.2823 6.94996 
v 9.73735 1.2823 6.94997 
v 9.73735 1.2823 6.94996 
v 9.73735 1.2823 6.94997 
v 9.73735 1.28232 6.94996 
v 9.73735 1.28232 6.69996 
v 9.68737 1.28232 6.94996 
v 9.68737 1.28232 6.69996 
v 9.73735 1.28232 6.69996 
v 9.73735 1.18232 6.69996 
v 9.68737 1.28232 6.69996 
v 9.68737 1.18232 6.69996 
v 9.68737 1.18232 6.69996 

vn -1 0 0 
vn -1 0 0 
vn -1 0 0 
vn -1 0 0 
vn 0 0 1 
vn 0 0 1 
vn 0 0 1 
vn 0 0 1 
vn 0 0 1 
vn 0.897638 0.448819 0 
vn 0.897638 0.448819 0 
vn 0.897638 0.448819 0 
vn 0 0 1 
vn 0.897638 0.448819 0 
vn 0.897638 0.448819 0 
vn 0.897638 0.448819 0 
vn 1 0 0 
vn 1 0 0 
vn 1 0 0 
vn 1 0 0 
vn 0 1 0 
vn 0 1 0 
vn 0 1 0 
vn 0 1 0 
vn 0 1 0 
vn 1 0 0 
vn 1 0 0 
vn 1 0 0 
vn 0 0 -1 
vn 0 0 -1 
vn 0 0 -1 
vn 0 0 -1 
vn 0 -1 0 
vn 0 -1 0 
vn 0 -1 0 
vn 0 -1 0 
vn 0 0 -1 
vn 0 0 -1 
vn 0 0 -1 
vn 0 0 -1 
vn 0 0 -1 
vn 0 -1 0 
vn 0 -1 0 
vn -1 0 0 
vn -1 0 0 
vn -1 0 0 
vn -1 0 0 
vn 0 0 1 
vn 0 0 1 
vn 0 0 1 
vn 0 0 -1 
vn 0 0 -1 
vn 0 0 -1 
vn 1 0 0 
vn 1 0 0 
vn 1 0 0 
vn 1 0 0 
vn -1 0 0 
vn -1 0 0 
vn -1 0 0 
vn 0 1 0 
vn 0 1 0 
vn 0 1 0 
vn 0 1 0 
vn 0 0 1 
vn 0 0 1 
vn 0 0 1 
vn 0 0 1 
vn 0 1 0 
vn 0 1 0 
vn 1 0 0 
vn 1 0 0 
vn 1 0 0 
vn 1 0 0 
vn 0 1 0 
vn 0 1 0 
vn 0 1 0 
vn 0 -1 0 
vn 0 -1 0 
vn 0 -1 0 
vn 0 -1 0 
vn 0 0 -1 
vn 0 0 -1 
vn 0 0 -1 
vn 0 0 -1 
vn 0 0 -1 
vn 0 1 0 
vn 0 0 1 
vn 0 0 1 
vn 0 0 1 
vn 0 0 1 
vn -1 0 0 
vn -1 0 0 
vn -1 0 0 
vn -1 0 0 
vn 0 1 0 
vn 0 1 0 
vn -0.897638 0.448819 0 
vn -0.897638 0.448819 0 
vn -0.897638 0.448819 0 
vn -0.897638 0.448819 0 
vn 0 1 0 
vn -1 0 0 
vn -1 0 0 
vn -1 0 0 
vn -1 0 0 
vn 0 0 -1 
vn 0 0 -1 
vn 0 0 -1 
vn -0.897638 0.448819 0 
vn -0.897638 0.448819 0 
vn -0.897638 0.448819 0 
vn -0.897638 0.448819 0 
vn 0 0 1 
vn 0 0 1 
vn 0 0 1 
vn 0 1 0 
vn 0 1 0 
vn 0 1 0 
vn 0 1 0 
vn 1 0 0 
vn 1 0 0 
vn 1 0 0 
vn 1 0 0 
vn 0 1 0 
vn 0 1 0 
vn 0 1 0 
vn -1 0 0 
vn -1 0 0 
vn -1 0 0 
vn -1 0 0 
vn -1 0 0 
vn -1 0 0 
vn 0 0 1 
vn 0 0 1 
vn 0 0 1 
vn 0 0 1 
vn -1 0 0 
vn -1 0 0 
vn -1 0 0 
vn -1 0 0 
vn 0 1 0 
vn 0 1 0 
vn 0 1 0 
vn 0 1 0 
vn 0 1 0 
vn 0 1 0 
vn 0 0 -1 
vn 0 0 -1 
vn 0 0 -1 
vn 0 0 -1 
vn 0 -1 0 
vn 0 -1 0 
vn 0 -1 0 
vn 0 -1 0 
vn 0 -1 0 
vn 0 -1 0 
vn -1 0 0 
vn -1 0 0 
vn 0 0 -1 
vn 0 0 -1 
vn 0 0 -1 
vn 0 -1 0 
vn 0 -1 0 
vn 0 -1 0 
vn 0 -1 0 
vn 0 1 0 
vn 0 0 -1 
vn 0 0 -1 
vn 0 0 -1 
vn 0 0 -1 
vn 1 0 0 
vn 1 0 0 
vn 1 0 0 
vn 1 0 0 
vn 0 0 -1 
vn 0 0 -1 
vn 1 0 0 
vn 1 0 0 
vn 1 0 0 
vn 1 0 0 
vn 0 0 1 
vn 0 0 1 
vn 0 0 1 
vn 0 0 1 
vn 0 0 1 
vn 0 1 0 
vn 0 1 0 
vn 0 1 0 
vn 0 -1 0 
vn 0 -1 0 
vn 0 -1 0 
vn 1 0 0 
vn 1 0 0 
vn 1 0 0 
vn 1 0 0 
vn 0 0 1 
vn 0 0 1 
vn 0 0 1 
vn 0 0 1 
vn 0 0 1 
vn 0 -1 0 
vn 0 -1 0 
vn 0 1 0 
vn 0 1 0 
vn 0 0 1 
vn 1 0 0 
vn 1 0 0 
vn 0 1 0 
vn 0 0 1 
vn 0 0 1 
vn 0 0 1 
vn 0.897638 0.448819 0 
vn 0.897638 0.448819 0 
vn 0.897638 0.448819 0 
vn 0.897638 0.448819 0 
vn 0 0 -1 
vn 0 0 -1 
vn 0 0 -1 
vn 0 0 -1 
vn 0 0 -1 
vn -1 0 0 
vn -1 0 0 
vn -1 0 0 
vn -1 0 0 
vn -1 0 0 
vn -1 0 0 
vn 0.897638 0.448819 0 
vn 0.897638 0.448819 0 
vn 0 1 0 
vn 0 1 0 
vn 0 1 0 
vn 0 1 0 
vn 0 0 -1 
vn 0 0 -1 
vn 0 0 -1 
vn 0 0 -1 
vn 0 -1 0 

vt 8.125 -48.925 
vt 8.125 -48.825 
vt 7.875 -48.925 
vt 7.875 -48.825 
vt 7.29999 -48.925 
vt 7.29999 -48.825 
vt 7.25 -48.925 
vt 7.29999 -48.825 
vt 7.25 -48.825 
vt 7.875 -48.825 
vt 7.875 -48.825 
vt 7.875 -48.825 
vt 7.30002 -48.825 
vt 7.875 -48.925 
vt 8.125 -48.925 
vt 8.125 -48.825 
vt 8.125 -48.825 
vt 8.125 -48.825 
vt 7.875 -48.825 
vt 7.875 -48.825 
vt 8.75 -49.125 
vt 8.75 -48.875 
vt 8.70001 -49.125 
vt 8.70001 -48.875 
vt 8.70001 -49.125 
vt 8.125 -48.925 
vt 8.125 -48.825 
vt 8.125 -48.925 
vt 8.75 -48.825 
vt 8.70001 -48.825 
vt 8.75 -48.925 
vt 8.70001 -48.925 
vt 7.29999 -49.125 
vt 7.29999 -49.125 
vt 7.29999 -49.125 
vt 7.25 -49.125 
vt 8.69998 -48.825 
vt 8.64999 -48.925 
vt 8.70001 -48.925 
vt 8.69998 -48.925 
vt 8.70001 -48.925 
vt 7.29999 -48.875 
vt 7.25 -48.875 
vt 8.125 -48.925 
vt 8.125 -48.825 
vt 8.125 -48.925 
vt 8.125 -48.825 
vt 7.24997 -48.825 
vt 7.19995 -48.925 
vt 7.24997 -48.925 
vt 8.80005 -48.925 
vt 8.75003 -48.825 
vt 8.75003 -48.925 
vt 8.125 -48.825 
vt 7.875 -48.825 
vt 8.125 -48.925 
vt 7.875 -48.925 
vt 8.125 -48.925 
vt 7.875 -48.925 
vt 7.875 -48.925 
vt 8.69998 -49.125 
vt 8.75003 -49.125 
vt 8.69998 -48.875 
vt 8.75003 -48.875 
vt 7.30002 -48.925 
vt 7.29999 -48.825 
vt 7.29999 -48.925 
vt 7.35001 -48.925 
vt 8.64999 -49.125 
vt 8.14996 -49.175 
vt 8.175 -48.925 
vt 7.825 -48.925 
vt 8.175 -49.175 
vt 7.825 -49.175 
vt 8.14996 -48.825 
vt 8.64999 -48.875 
vt 8.84998 -48.825 
vt 7.85004 -49.175 
vt 7.85004 -48.825 
vt 7.15002 -49.175 
vt 7.15002 -48.825 
vt 8.84998 -49.175 
vt 8.84998 -48.925 
vt 8.14996 -49.175 
vt 8.80463 -48.925 
vt 8.14996 -48.925 
vt 8.80463 -49.175 
vt 7.85004 -49.175 
vt 7.85004 -48.925 
vt 7.15002 -49.175 
vt 7.15002 -48.925 
vt 7.825 -49.175 
vt 8.175 -49.175 
vt 7.825 -48.925 
vt 8.175 -48.925 
vt 8.84998 -49.175 
vt 8.80005 -49.125 
vt 7.875 -48.825 
vt 7.875 -48.925 
vt 8.125 -48.825 
vt 8.125 -48.925 
vt 8.80005 -48.875 
vt 7.875 -48.925 
vt 8.125 -48.925 
vt 7.875 -48.825 
vt 8.125 -48.825 
vt 7.29999 -48.925 
vt 7.34998 -48.925 
vt 7.29996 -48.825 
vt 7.875 -48.825 
vt 7.875 -48.925 
vt 8.125 -48.825 
vt 8.125 -48.925 
vt 8.65002 -48.925 
vt 8.70001 -48.925 
vt 8.70004 -48.825 
vt 7.34998 -48.875 
vt 7.54996 -48.825 
vt 7.29532 -48.825 
vt 7.29999 -48.875 
vt 8.125 -48.925 
vt 8.125 -48.825 
vt 7.875 -48.925 
vt 7.875 -48.825 
vt 7.29999 -49.125 
vt 7.54996 -49.175 
vt 7.34998 -49.125 
vt 8.175 -49.075 
vt 8.175 -48.925 
vt 7.825 -49.075 
vt 8.175 -49.175 
vt 7.825 -48.925 
vt 8.175 -49.175 
vt 8.45001 -49.075 
vt 7.85004 -49.075 
vt 8.45001 -49.175 
vt 7.85004 -49.175 
vt 7.825 -49.175 
vt 8.175 -49.175 
vt 7.825 -49.075 
vt 8.175 -49.075 
vt 7.54999 -49.175 
vt 7.54996 -49.175 
vt 7.54996 -49.175 
vt 8.14996 -48.825 
vt 7.54999 -48.825 
vt 8.14996 -49.175 
vt 7.54996 -49.075 
vt 7.54996 -49.175 
vt 8.14996 -49.075 
vt 8.14996 -49.175 
vt 8.45001 -49.175 
vt 8.45001 -48.825 
vt 7.85004 -49.175 
vt 7.85004 -48.825 
vt 8.45004 -49.175 
vt 8.45004 -49.175 
vt 7.825 -49.175 
vt 7.825 -49.175 
vt 7.54999 -49.175 
vt 7.54996 -49.175 
vt 7.54996 -49.175 
vt 8.45004 -48.825 
vt 8.45004 -49.175 
vt 8.85001 -48.825 
vt 8.85001 -49.175 
vt 7.29532 -49.175 
vt 7.54999 -49.075 
vt 7.54996 -48.925 
vt 7.54996 -49.075 
vt 7.29532 -48.925 
vt 8.175 -49.075 
vt 8.175 -49.175 
vt 8.175 -49.075 
vt 8.175 -49.175 
vt 7.14999 -48.925 
vt 7.14999 -49.175 
vt 8.175 -48.925 
vt 7.825 -48.925 
vt 8.175 -49.175 
vt 7.825 -49.175 
vt 8.85001 -49.175 
vt 8.85001 -48.925 
vt 8.45004 -49.175 
vt 8.70468 -48.925 
vt 8.45004 -48.925 
vt 7.25 -49.125 
vt 7.19998 -49.125 
vt 7.14999 -49.175 
vt 8.75 -49.125 
vt 8.75 -49.125 
vt 8.75 -49.125 
vt 8.125 -48.825 
vt 8.125 -48.925 
vt 8.125 -48.825 
vt 8.125 -48.925 
vt 8.75 -48.825 
vt 8.70001 -48.825 
vt 8.75 -48.825 
vt 8.70001 -48.925 
vt 8.75 -48.925 
vt 8.75 -48.875 
vt 8.70001 -48.875 
vt 7.19998 -48.875 
vt 7.14999 -48.825 
vt 8.75 -48.825 
vt 7.875 -48.825 
vt 7.875 -48.825 
vt 7.25 -48.875 
vt 8.75 -48.825 
vt 8.75 -48.925 
vt 8.80002 -48.925 
vt 7.875 -48.825 
vt 7.875 -48.925 
vt 8.125 -48.825 
vt 8.125 -48.925 
vt 7.25 -48.925 
vt 7.19998 -48.925 
vt 7.25 -48.925 
vt 7.25 -48.825 
vt 7.25 -48.925 
vt 8.125 -48.925 
vt 8.125 -48.925 
vt 7.875 -48.925 
vt 7.875 -48.925 
vt 8.125 -48.825 
vt 8.125 -48.825 
vt 7.875 -48.825 
vt 7.875 -48.825 
vt 7.25 -48.875 
vt 7.25 -49.125 
vt 7.29999 -48.875 
vt 7.29999 -49.125 
vt 7.25 -48.825 
vt 7.25 -48.925 
vt 7.29999 -48.825 
vt 7.29999 -48.925 
vt 8.70001 -49.125 

usemtl Gunslide1Mtl

f 1/1/1 2/2/2 3/3/3 
f 2/2/2 4/4/4 3/3/3 
f 5/5/5 6/6/6 7/7/7 
f 6/6/6 8/8/8 7/7/7 
f 8/8/8 9/9/9 7/7/7 
f 10/10/10 11/11/11 12/12/12 
f 13/13/13 8/8/8 6/6/6 
f 11/11/11 14/14/14 12/12/12 
f 14/14/14 15/15/15 12/12/12 
f 15/15/15 16/16/16 12/12/12 
f 17/17/17 18/18/18 19/19/19 
f 18/18/18 20/20/20 19/19/19 
f 21/21/21 22/22/22 23/23/23 
f 22/22/22 24/24/24 23/23/23 
f 24/24/24 25/25/25 23/23/23 
f 26/26/26 27/27/27 28/28/28 
f 27/27/27 17/17/17 28/28/28 
f 18/18/18 17/17/17 27/27/27 
f 29/29/29 30/30/30 31/31/31 
f 30/30/30 32/32/32 31/31/31 
f 33/33/33 34/34/34 35/35/35 
f 36/36/36 34/34/34 33/33/33 
f 37/37/37 38/38/38 39/39/39 
f 38/38/38 40/40/40 39/39/39 
f 40/40/40 41/41/41 39/39/39 
f 42/42/42 43/43/43 33/33/33 
f 43/43/43 36/36/36 33/33/33 
f 44/44/44 45/45/45 46/46/46 
f 45/45/45 47/47/47 46/46/46 
f 48/48/48 49/49/49 50/50/50 
f 51/51/51 52/52/52 53/53/53 
f 54/54/54 55/55/55 56/56/56 
f 55/55/55 57/57/57 56/56/56 
f 58/58/58 44/44/44 59/59/59 
f 44/44/44 46/46/46 59/59/59 
f 46/46/46 60/60/60 59/59/59 
f 61/61/61 62/62/62 63/63/63 
f 62/62/62 64/64/64 63/63/63 
f 65/65/65 66/66/66 67/67/67 
f 68/68/68 66/66/66 65/65/65 
f 61/61/61 69/69/69 70/70/70 
f 71/71/71 72/72/72 73/73/73 
f 72/72/72 74/74/74 73/73/73 
f 69/69/69 75/75/75 70/70/70 
f 76/76/76 75/75/75 69/69/69 
f 63/63/63 75/75/75 76/76/76 
f 77/77/77 75/75/75 63/63/63 
f 78/78/78 79/79/79 80/80/80 
f 79/79/79 81/81/81 80/80/80 
f 82/82/82 83/83/83 84/84/84 
f 83/83/83 85/85/85 84/84/84 
f 85/85/85 86/86/86 84/84/84 
f 61/61/61 70/70/70 87/87/87 
f 64/64/64 77/77/77 63/63/63 
f 88/88/88 89/89/89 90/90/90 
f 89/89/89 91/91/91 90/90/90 
f 92/92/92 93/93/93 94/94/94 
f 93/93/93 95/95/95 94/94/94 
f 77/77/77 87/87/87 96/96/96 
f 62/62/62 61/61/61 97/97/97 
f 61/61/61 87/87/87 97/97/97 
f 87/87/87 77/77/77 97/97/97 
f 98/98/98 99/99/99 100/100/100 
f 99/99/99 101/101/101 100/100/100 
f 102/102/102 77/77/77 64/64/64 
f 102/102/102 97/97/97 77/77/77 
f 103/103/103 104/104/104 105/105/105 
f 104/104/104 106/106/106 105/105/105 
f 107/107/107 108/108/108 109/109/109 
f 110/110/110 111/111/111 112/112/112 
f 111/111/111 113/113/113 112/112/112 
f 114/114/114 115/115/115 116/116/116 
f 117/117/117 118/118/118 119/119/119 
f 119/119/119 120/120/120 117/117/117 
f 121/121/121 122/122/122 123/123/123 
f 122/122/122 124/124/124 123/123/123 
f 120/120/120 119/119/119 125/125/125 
f 125/125/125 126/126/126 127/127/127 
f 126/126/126 117/117/117 127/127/127 
f 128/128/128 129/129/129 130/130/130 
f 131/131/131 129/129/129 128/128/128 
f 129/129/129 132/132/132 130/130/130 
f 133/133/133 131/131/131 128/128/128 
f 134/134/134 135/135/135 136/136/136 
f 135/135/135 137/137/137 136/136/136 
f 138/138/138 139/139/139 140/140/140 
f 139/139/139 141/141/141 140/140/140 
f 142/142/142 143/143/143 144/144/144 
f 145/145/145 146/146/146 147/147/147 
f 146/146/146 142/142/142 147/147/147 
f 142/142/142 144/144/144 147/147/147 
f 148/148/148 149/149/149 150/150/150 
f 149/149/149 151/151/151 150/150/150 
f 152/152/152 153/153/153 154/154/154 
f 153/153/153 155/155/155 154/154/154 
f 156/156/156 152/152/152 157/157/157 
f 152/152/152 154/154/154 157/157/157 
f 131/131/131 133/133/133 158/158/158 
f 133/133/133 159/159/159 158/158/158 
f 160/160/160 161/161/161 162/162/162 
f 163/163/163 164/164/164 165/165/165 
f 164/164/164 166/166/166 165/165/165 
f 126/126/126 125/125/125 167/167/167 
f 118/118/118 117/117/117 126/126/126 
f 168/168/168 169/169/169 170/170/170 
f 169/169/169 171/171/171 170/170/170 
f 172/172/172 173/173/173 174/174/174 
f 173/173/173 175/175/175 174/174/174 
f 170/170/170 171/171/171 161/161/161 
f 171/171/171 176/176/176 161/161/161 
f 176/176/176 177/177/177 161/161/161 
f 177/177/177 162/162/162 161/161/161 
f 178/178/178 179/179/179 180/180/180 
f 179/179/179 181/181/181 180/180/180 
f 182/182/182 183/183/183 184/184/184 
f 183/183/183 185/185/185 184/184/184 
f 185/185/185 186/186/186 184/184/184 
f 187/187/187 188/188/188 189/189/189 
f 190/190/190 191/191/191 192/192/192 
f 193/193/193 194/194/194 195/195/195 
f 194/194/194 196/196/196 195/195/195 
f 197/197/197 198/198/198 199/199/199 
f 198/198/198 200/200/200 199/199/199 
f 200/200/200 201/201/201 199/199/199 
f 202/202/202 203/203/203 191/191/191 
f 204/204/204 205/205/205 188/188/188 
f 206/206/206 197/197/197 199/199/199 
f 193/193/193 195/195/195 207/207/207 
f 195/195/195 208/208/208 207/207/207 
f 204/204/204 209/209/209 205/205/205 
f 210/210/210 211/211/211 212/212/212 
f 213/213/213 214/214/214 215/215/215 
f 214/214/214 216/216/216 215/215/215 
f 217/217/217 218/218/218 219/219/219 
f 220/220/220 218/218/218 217/217/217 
f 217/217/217 219/219/219 221/221/221 
f 222/222/222 223/223/223 224/224/224 
f 223/223/223 225/225/225 224/224/224 
f 223/223/223 222/222/222 226/226/226 
f 222/222/222 227/227/227 226/226/226 
f 228/228/228 229/229/229 213/213/213 
f 229/229/229 214/214/214 213/213/213 
f 230/230/230 231/231/231 232/232/232 
f 231/231/231 233/233/233 232/232/232 
f 234/234/234 235/235/235 236/236/236 
f 235/235/235 237/237/237 236/236/236 
f 188/188/188 205/205/205 189/189/189 
f 187/187/187 189/189/189 167/167/167 
f 205/205/205 209/209/209 119/119/119 
f 209/209/209 187/187/187 119/119/119 
f 187/187/187 167/167/167 119/119/119 
f 167/167/167 125/125/125 119/119/119 
f 191/191/191 203/203/203 192/192/192 
f 203/203/203 238/238/238 192/192/192 

